# xmcd
#
# Track frame offsets:
# 150
# 13950
# 27722
# 42470
# 62237
# 79570
# 94377
# 116807
# 132940
# 146955
# 162770
# 183915
# 202542
# 224190
#
# Disc length: 3174 seconds
#
# Revision: 0
# Processed by: cddbd v1.4PL0 Copyright (c) Steve Scherf et al.
# Submitted via: Audion 3.0.2 (http://www.panic.com/audion/)
#
DISCID=d50c640e
DTITLE=ordination of aaron - discography
DYEAR=1900
DGENRE=
TTITLE0=immersion in a 90 mph world
TTITLE1=you too can be a motion picture star
TTITLE2=exercise in futility
TTITLE3=beautiful two fold
TTITLE4=new face
TTITLE5=crate
TTITLE6=count of monte carlo
TTITLE7=something like bottom
TTITLE8=battle of tippecanoe
TTITLE9=parthenon
TTITLE10=product you
TTITLE11=be the forecast
TTITLE12=eli
TTITLE13=lay down and die
EXTD=
EXTT0=
EXTT1=
EXTT2=
EXTT3=
EXTT4=
EXTT5=
EXTT6=
EXTT7=
EXTT8=
EXTT9=
EXTT10=
EXTT11=
EXTT12=
EXTT13=
PLAYORDER=
